<svg width="50" height="50" viewBox="0 0 50 50" fill="none" xmlns="http://www.w3.org/2000/svg">
	<rect x="18.1763" y="17.6561" width="16.0186" height="15.4253" fill="white"/>
	<path d="M25.0115 39.4591H24.9704C24.8432 39.4591 12.1161 39.4345 8.90509 38.5625C7.13939 38.0868 5.76045 36.7071 5.28577 34.9411C4.70836 31.6836 4.42953 28.3803 4.45276 25.0721C4.43784 21.7585 4.72421 18.4504 5.30834 15.1887C5.79606 13.4212 7.16895 12.0351 8.93177 11.5304C12.0546 10.7097 24.4308 10.7097 24.9561 10.7097H24.9992C25.1284 10.7097 37.8884 10.7343 41.0666 11.6063C42.8286 12.0844 44.2047 13.4613 44.6818 15.2236C45.2776 18.4932 45.5572 21.8125 45.5169 25.1357C45.5312 28.4453 45.2442 31.7493 44.6592 35.0068C44.1784 36.7705 42.7986 38.1472 41.0337 38.624C37.9151 39.4509 25.5367 39.4591 25.0115 39.4591ZM20.9079 18.9271L20.8977 31.2377L31.5915 25.0824L20.9079 18.9271Z" fill="#0063B2"/>
</svg>
